Format                           : AVI
Format/Info                      : Audio Video Interleave
File size                        : 630 MiB
Duration                         : 1h 54mn
Overall bit rate                 : 769 Kbps
Writing application              : Lavf52.0.0

Video
ID                               : 0
Format                           : xvid
Codec ID                         : xvid
Duration                         : 1h 54mn
Bit rate                         : 693 Kbps
Width                            : 352 pixels
Height                           : 288 pixels
Display aspect ratio             : 1.222
Frame rate                       : 25.000 fps
Standard                         : PAL
Bits/(Pixel*Frame)               : 0.273
Stream size                      : 567 MiB (90%)

Audio
ID                               : 1
Format                           : MPEG Audio
Format version                   : Version 1
Format profile                   : Layer 3
Mode                             : Joint stereo
Mode extension                   : MS Stereo
Codec ID                         : 55
Codec ID/Hint                    : MP3
Duration                         : 1h 54mn
Bit rate mode                    : Constant
Bit rate                         : 64.0 Kbps
Channel(s)                       : 2 channels
Sampling rate                    : 44.1 KHz
Stream size                      : 52.4 MiB (8%)
Alignment                        : Aligned on interleaves
Interleave, duration             : 26 ms (0.65 video frame)

